<svg 
 xmlns="http://www.w3.org/2000/svg"
 xmlns:xlink="http://www.w3.org/1999/xlink"
 width="206px" height="206px">
<defs>
<linearGradient id="PSgrad_0" x1="0%" x2="88.295%" y1="0%" y2="46.947%">
  <stop offset="0%" stop-color="rgb(47,61,252)" stop-opacity="0.6" />
  <stop offset="73%" stop-color="rgb(100,17,135)" stop-opacity="0.6" />
</linearGradient>

</defs>
<path fill-rule="evenodd"  fill="rgb(0, 0, 0)"
 d="M103.000,206.000 C46.269,206.000 0.063,159.796 0.000,103.005 C-0.013,90.999 2.018,79.238 6.038,68.047 C6.820,65.867 9.223,64.736 11.400,65.518 C13.579,66.301 14.711,68.701 13.929,70.880 C10.237,81.157 8.372,91.962 8.384,102.995 C8.442,155.169 50.887,197.616 103.001,197.615 C155.172,197.615 197.616,155.170 197.616,102.999 C197.616,50.913 155.169,8.468 102.994,8.384 C102.944,8.384 102.892,8.384 102.842,8.384 C80.949,8.384 59.628,16.026 42.786,29.913 C41.000,31.385 38.358,31.132 36.885,29.345 C35.413,27.559 35.666,24.917 37.453,23.444 C55.792,8.323 79.009,-0.000 102.842,-0.000 C102.897,-0.000 102.951,-0.000 103.007,-0.000 C130.526,0.045 156.389,10.769 175.831,30.200 C195.286,49.642 206.000,75.497 206.000,103.000 C206.000,159.794 159.795,206.000 103.000,206.000 ZM122.808,111.318 C121.764,113.815 120.231,116.154 118.202,118.183 C116.298,120.088 114.096,121.584 111.704,122.642 C111.538,122.738 111.366,122.827 111.183,122.902 L73.249,138.260 C72.740,138.466 72.206,138.567 71.677,138.567 C70.586,138.567 69.513,138.141 68.712,137.338 C67.521,136.148 67.159,134.361 67.791,132.800 L83.154,94.870 C83.234,94.673 83.331,94.488 83.436,94.310 C84.475,91.965 85.948,89.767 87.868,87.848 C90.109,85.606 92.760,83.925 95.651,82.867 L132.751,67.840 C134.311,67.208 136.098,67.570 137.288,68.762 C138.478,69.953 138.841,71.740 138.209,73.300 L122.850,111.234 C122.838,111.263 122.821,111.289 122.808,111.318 ZM87.867,118.182 C86.538,116.853 85.423,115.391 84.516,113.839 L79.278,126.773 L92.208,121.537 C90.643,120.619 89.184,119.498 87.867,118.182 ZM103.035,89.948 C101.377,89.948 99.769,90.264 98.269,90.852 L97.967,90.974 C97.949,90.981 97.931,90.985 97.913,90.992 C96.395,91.640 94.997,92.574 93.796,93.776 C88.701,98.870 88.701,107.159 93.796,112.254 C96.264,114.723 99.545,116.082 103.035,116.082 C106.525,116.082 109.807,114.722 112.274,112.254 C117.369,107.159 117.369,98.870 112.274,93.776 C109.807,91.307 106.525,89.948 103.035,89.948 ZM113.908,84.517 C115.456,85.431 116.900,86.543 118.203,87.846 C119.521,89.165 120.630,90.613 121.532,92.150 L126.724,79.326 L113.908,84.517 ZM155.699,102.999 C155.699,100.685 157.576,98.808 159.891,98.808 L175.222,98.808 C177.536,98.808 179.413,100.685 179.413,102.999 C179.413,145.134 145.134,179.413 103.000,179.413 C60.866,179.413 26.587,145.133 26.587,102.999 C26.587,60.866 60.866,26.586 103.000,26.586 C113.527,26.586 123.725,28.689 133.311,32.836 C135.435,33.755 136.414,36.222 135.495,38.348 C134.575,40.473 132.107,41.451 129.983,40.531 C122.732,37.395 115.083,35.578 107.193,35.102 L107.193,46.110 C107.193,48.424 105.315,50.302 103.001,50.302 C100.686,50.302 98.809,48.424 98.809,46.110 L98.809,35.103 C64.629,37.192 37.193,64.629 35.105,98.808 L46.111,98.808 C48.426,98.808 50.303,100.685 50.303,102.999 C50.303,105.314 48.426,107.192 46.111,107.192 L35.105,107.192 C37.193,141.371 64.630,168.807 98.809,170.896 L98.809,159.889 C98.809,157.575 100.686,155.698 103.001,155.698 C105.315,155.698 107.193,157.575 107.193,159.889 L107.193,170.896 C141.372,168.807 168.809,141.370 170.897,107.192 L159.891,107.192 C157.576,107.192 155.699,105.314 155.699,102.999 Z"/>
<path fill="url(#PSgrad_0)"
 d="M103.000,206.000 C46.269,206.000 0.063,159.796 0.000,103.005 C-0.013,90.999 2.018,79.238 6.038,68.047 C6.820,65.867 9.223,64.736 11.400,65.518 C13.579,66.301 14.711,68.701 13.929,70.880 C10.237,81.157 8.372,91.962 8.384,102.995 C8.442,155.169 50.887,197.616 103.001,197.615 C155.172,197.615 197.616,155.170 197.616,102.999 C197.616,50.913 155.169,8.468 102.994,8.384 C102.944,8.384 102.892,8.384 102.842,8.384 C80.949,8.384 59.628,16.026 42.786,29.913 C41.000,31.385 38.358,31.132 36.885,29.345 C35.413,27.559 35.666,24.917 37.453,23.444 C55.792,8.323 79.009,-0.000 102.842,-0.000 C102.897,-0.000 102.951,-0.000 103.007,-0.000 C130.526,0.045 156.389,10.769 175.831,30.200 C195.286,49.642 206.000,75.497 206.000,103.000 C206.000,159.794 159.795,206.000 103.000,206.000 ZM122.808,111.318 C121.764,113.815 120.231,116.154 118.202,118.183 C116.298,120.088 114.096,121.584 111.704,122.642 C111.538,122.738 111.366,122.827 111.183,122.902 L73.249,138.260 C72.740,138.466 72.206,138.567 71.677,138.567 C70.586,138.567 69.513,138.141 68.712,137.338 C67.521,136.148 67.159,134.361 67.791,132.800 L83.154,94.870 C83.234,94.673 83.331,94.488 83.436,94.310 C84.475,91.965 85.948,89.767 87.868,87.848 C90.109,85.606 92.760,83.925 95.651,82.867 L132.751,67.840 C134.311,67.208 136.098,67.570 137.288,68.762 C138.478,69.953 138.841,71.740 138.209,73.300 L122.850,111.234 C122.838,111.263 122.821,111.289 122.808,111.318 ZM87.867,118.182 C86.538,116.853 85.423,115.391 84.516,113.839 L79.278,126.773 L92.208,121.537 C90.643,120.619 89.184,119.498 87.867,118.182 ZM103.035,89.948 C101.377,89.948 99.769,90.264 98.269,90.852 L97.967,90.974 C97.949,90.981 97.931,90.985 97.913,90.992 C96.395,91.640 94.997,92.574 93.796,93.776 C88.701,98.870 88.701,107.159 93.796,112.254 C96.264,114.723 99.545,116.082 103.035,116.082 C106.525,116.082 109.807,114.722 112.274,112.254 C117.369,107.159 117.369,98.870 112.274,93.776 C109.807,91.307 106.525,89.948 103.035,89.948 ZM113.908,84.517 C115.456,85.431 116.900,86.543 118.203,87.846 C119.521,89.165 120.630,90.613 121.532,92.150 L126.724,79.326 L113.908,84.517 ZM155.699,102.999 C155.699,100.685 157.576,98.808 159.891,98.808 L175.222,98.808 C177.536,98.808 179.413,100.685 179.413,102.999 C179.413,145.134 145.134,179.413 103.000,179.413 C60.866,179.413 26.587,145.133 26.587,102.999 C26.587,60.866 60.866,26.586 103.000,26.586 C113.527,26.586 123.725,28.689 133.311,32.836 C135.435,33.755 136.414,36.222 135.495,38.348 C134.575,40.473 132.107,41.451 129.983,40.531 C122.732,37.395 115.083,35.578 107.193,35.102 L107.193,46.110 C107.193,48.424 105.315,50.302 103.001,50.302 C100.686,50.302 98.809,48.424 98.809,46.110 L98.809,35.103 C64.629,37.192 37.193,64.629 35.105,98.808 L46.111,98.808 C48.426,98.808 50.303,100.685 50.303,102.999 C50.303,105.314 48.426,107.192 46.111,107.192 L35.105,107.192 C37.193,141.371 64.630,168.807 98.809,170.896 L98.809,159.889 C98.809,157.575 100.686,155.698 103.001,155.698 C105.315,155.698 107.193,157.575 107.193,159.889 L107.193,170.896 C141.372,168.807 168.809,141.370 170.897,107.192 L159.891,107.192 C157.576,107.192 155.699,105.314 155.699,102.999 Z"/>
</svg>