<svg 
 xmlns="http://www.w3.org/2000/svg"
 xmlns:xlink="http://www.w3.org/1999/xlink"
 width="157px" height="211px">
<defs>
<linearGradient id="PSgrad_0" x1="0%" x2="88.295%" y1="0%" y2="46.947%">
  <stop offset="0%" stop-color="rgb(47,61,252)" stop-opacity="0.6" />
  <stop offset="73%" stop-color="rgb(100,17,135)" stop-opacity="0.6" />
</linearGradient>

</defs>
<path fill-rule="evenodd"  fill="rgb(0, 0, 0)"
 d="M78.500,-0.000 C33.939,-0.000 -0.000,87.916 -0.000,131.914 C-0.000,175.520 35.217,211.000 78.500,211.000 C121.783,211.000 157.000,175.520 157.000,131.914 C157.000,87.916 123.061,-0.000 78.500,-0.000 ZM78.500,8.791 C92.941,8.791 108.454,21.684 121.907,44.457 L121.540,44.301 C120.459,43.846 119.241,43.846 118.159,44.301 L99.130,52.376 L80.106,44.302 C79.024,43.847 77.806,43.847 76.724,44.302 L57.699,52.376 L38.705,44.302 C37.623,43.847 36.397,43.842 35.315,44.306 L35.133,44.383 C48.576,21.655 64.074,8.791 78.500,8.791 ZM28.565,56.717 L37.010,53.123 L56.004,61.198 C57.086,61.653 58.308,61.653 59.390,61.198 L78.415,53.123 L97.439,61.198 C97.980,61.426 98.555,61.541 99.130,61.541 C99.704,61.541 100.280,61.426 100.820,61.198 L119.849,53.123 L128.461,56.772 C136.220,72.744 142.244,90.884 145.512,107.445 L140.607,109.522 L121.540,101.447 C120.458,100.992 119.240,100.992 118.158,101.447 L99.130,109.522 L80.105,101.447 C79.023,100.992 77.805,100.992 76.724,101.447 L57.699,109.522 L38.705,101.447 C37.623,100.992 36.396,100.988 35.314,101.451 L16.345,109.522 L11.485,107.456 C14.758,90.874 20.791,72.706 28.565,56.717 ZM78.500,202.208 C55.528,202.208 35.175,190.918 22.453,173.609 L37.010,167.415 L56.004,175.490 C57.086,175.945 58.308,175.945 59.390,175.490 L78.415,167.415 L97.439,175.490 C97.980,175.718 98.555,175.833 99.130,175.833 C99.704,175.833 100.280,175.718 100.820,175.490 L119.849,167.415 L134.529,173.633 C121.806,190.928 101.461,202.208 78.500,202.208 ZM121.540,158.593 C120.459,158.138 119.241,158.138 118.159,158.593 L99.130,166.668 L80.106,158.593 C79.024,158.138 77.806,158.138 76.724,158.593 L57.699,166.668 L38.705,158.593 C37.623,158.138 36.397,158.134 35.315,158.597 L17.604,166.133 C11.968,155.995 8.722,144.335 8.722,131.913 C8.722,127.151 9.198,121.872 9.970,116.356 L14.650,118.344 C15.741,118.799 16.959,118.803 18.041,118.339 L37.010,110.269 L56.004,118.344 C57.086,118.799 58.308,118.799 59.390,118.344 L78.415,110.269 L97.439,118.344 C97.980,118.572 98.555,118.687 99.130,118.687 C99.704,118.687 100.280,118.572 100.820,118.344 L119.849,110.269 L138.916,118.344 C139.998,118.799 141.216,118.799 142.298,118.344 L147.028,116.341 C147.801,121.862 148.277,127.148 148.277,131.914 C148.277,144.343 145.027,156.010 139.385,166.151 L121.540,158.593 Z"/>
<path fill="url(#PSgrad_0)"
 d="M78.500,-0.000 C33.939,-0.000 -0.000,87.916 -0.000,131.914 C-0.000,175.520 35.217,211.000 78.500,211.000 C121.783,211.000 157.000,175.520 157.000,131.914 C157.000,87.916 123.061,-0.000 78.500,-0.000 ZM78.500,8.791 C92.941,8.791 108.454,21.684 121.907,44.457 L121.540,44.301 C120.459,43.846 119.241,43.846 118.159,44.301 L99.130,52.376 L80.106,44.302 C79.024,43.847 77.806,43.847 76.724,44.302 L57.699,52.376 L38.705,44.302 C37.623,43.847 36.397,43.842 35.315,44.306 L35.133,44.383 C48.576,21.655 64.074,8.791 78.500,8.791 ZM28.565,56.717 L37.010,53.123 L56.004,61.198 C57.086,61.653 58.308,61.653 59.390,61.198 L78.415,53.123 L97.439,61.198 C97.980,61.426 98.555,61.541 99.130,61.541 C99.704,61.541 100.280,61.426 100.820,61.198 L119.849,53.123 L128.461,56.772 C136.220,72.744 142.244,90.884 145.512,107.445 L140.607,109.522 L121.540,101.447 C120.458,100.992 119.240,100.992 118.158,101.447 L99.130,109.522 L80.105,101.447 C79.023,100.992 77.805,100.992 76.724,101.447 L57.699,109.522 L38.705,101.447 C37.623,100.992 36.396,100.988 35.314,101.451 L16.345,109.522 L11.485,107.456 C14.758,90.874 20.791,72.706 28.565,56.717 ZM78.500,202.208 C55.528,202.208 35.175,190.918 22.453,173.609 L37.010,167.415 L56.004,175.490 C57.086,175.945 58.308,175.945 59.390,175.490 L78.415,167.415 L97.439,175.490 C97.980,175.718 98.555,175.833 99.130,175.833 C99.704,175.833 100.280,175.718 100.820,175.490 L119.849,167.415 L134.529,173.633 C121.806,190.928 101.461,202.208 78.500,202.208 ZM121.540,158.593 C120.459,158.138 119.241,158.138 118.159,158.593 L99.130,166.668 L80.106,158.593 C79.024,158.138 77.806,158.138 76.724,158.593 L57.699,166.668 L38.705,158.593 C37.623,158.138 36.397,158.134 35.315,158.597 L17.604,166.133 C11.968,155.995 8.722,144.335 8.722,131.913 C8.722,127.151 9.198,121.872 9.970,116.356 L14.650,118.344 C15.741,118.799 16.959,118.803 18.041,118.339 L37.010,110.269 L56.004,118.344 C57.086,118.799 58.308,118.799 59.390,118.344 L78.415,110.269 L97.439,118.344 C97.980,118.572 98.555,118.687 99.130,118.687 C99.704,118.687 100.280,118.572 100.820,118.344 L119.849,110.269 L138.916,118.344 C139.998,118.799 141.216,118.799 142.298,118.344 L147.028,116.341 C147.801,121.862 148.277,127.148 148.277,131.914 C148.277,144.343 145.027,156.010 139.385,166.151 L121.540,158.593 Z"/>
</svg>