<svg 
 xmlns="http://www.w3.org/2000/svg"
 xmlns:xlink="http://www.w3.org/1999/xlink"
 width="11px" height="20px">
<path fill-rule="evenodd"  opacity="0.749" fill="rgb(0, 0, 0)"
 d="M10.586,0.004 L7.947,-0.001 C4.983,-0.001 3.068,1.932 3.068,4.922 L3.068,7.191 L0.415,7.191 C0.186,7.191 0.000,7.374 0.000,7.599 L0.000,10.887 C0.000,11.113 0.186,11.295 0.415,11.295 L3.068,11.295 L3.068,19.592 C3.068,19.817 3.253,20.000 3.483,20.000 L6.943,20.000 C7.173,20.000 7.358,19.817 7.358,19.592 L7.358,11.295 L10.460,11.295 C10.689,11.295 10.875,11.113 10.875,10.887 L10.876,7.599 C10.876,7.491 10.832,7.387 10.755,7.311 C10.677,7.234 10.571,7.191 10.461,7.191 L7.359,7.191 L7.359,5.267 C7.359,4.343 7.583,3.873 8.808,3.873 L10.585,3.872 C10.814,3.872 11.000,3.690 11.000,3.465 L11.000,0.412 C11.000,0.187 10.814,0.004 10.586,0.004 Z"/>
</svg>