<svg 
 xmlns="http://www.w3.org/2000/svg"
 xmlns:xlink="http://www.w3.org/1999/xlink"
 width="12px" height="22px">
<path fill-rule="evenodd"  opacity="0.749" fill="rgb(255, 255, 255)"
 d="M11.499,0.099 L8.633,0.095 C5.413,0.095 3.333,2.211 3.333,5.486 L3.333,7.971 L0.451,7.971 C0.202,7.971 0.000,8.171 0.000,8.418 L0.000,12.019 C0.000,12.266 0.202,12.466 0.451,12.466 L3.332,12.466 L3.332,21.553 C3.332,21.800 3.534,22.000 3.783,22.000 L7.543,22.000 C7.792,22.000 7.994,21.800 7.994,21.553 L7.994,12.466 L11.363,12.466 C11.612,12.466 11.814,12.266 11.814,12.019 L11.815,8.418 C11.815,8.300 11.767,8.186 11.683,8.102 C11.598,8.018 11.484,7.971 11.364,7.971 L7.994,7.971 L7.994,5.864 C7.994,4.851 8.237,4.337 9.568,4.337 L11.499,4.337 C11.748,4.337 11.949,4.137 11.949,3.890 L11.949,0.546 C11.949,0.300 11.748,0.100 11.499,0.099 Z"/>
</svg>