<svg 
 xmlns="http://www.w3.org/2000/svg"
 xmlns:xlink="http://www.w3.org/1999/xlink"
 width="31px" height="20px">
<path fill-rule="evenodd"  opacity="0.749" fill="rgb(255, 255, 255)"
 d="M27.198,10.143 L27.198,14.085 L25.297,14.085 L25.297,10.143 L21.495,10.143 L21.495,8.171 L25.297,8.171 L25.297,4.228 L27.198,4.228 L27.198,8.171 L31.000,8.171 L31.000,10.143 L27.198,10.143 ZM10.088,20.000 C4.847,20.000 0.583,15.578 0.583,10.143 C0.583,4.708 4.847,0.286 10.088,0.286 C12.371,0.286 14.569,1.137 16.280,2.683 L13.782,5.656 C12.763,4.735 11.451,4.228 10.088,4.228 C6.944,4.228 4.385,6.882 4.385,10.143 C4.385,13.403 6.944,16.057 10.088,16.057 C12.567,16.057 14.681,14.409 15.466,12.114 L10.088,12.114 L10.088,8.171 L19.594,8.171 L19.594,10.143 C19.594,15.578 15.329,20.000 10.088,20.000 Z"/>
</svg>