<svg 
 xmlns="http://www.w3.org/2000/svg"
 xmlns:xlink="http://www.w3.org/1999/xlink"
 width="22px" height="22px">
<path fill-rule="evenodd"  fill="rgb(255, 255, 255)"
 d="M17.458,21.894 C16.580,21.894 15.520,21.673 14.354,21.233 C11.799,20.268 9.018,18.361 6.525,15.863 C4.031,13.365 2.127,10.580 1.163,8.020 C0.287,5.692 0.285,3.783 1.158,2.908 C1.283,2.782 1.411,2.648 1.543,2.508 C2.340,1.669 3.240,0.724 4.434,0.767 C5.256,0.801 6.053,1.313 6.869,2.330 C9.279,5.333 8.192,6.403 6.934,7.644 L6.712,7.864 C6.507,8.070 6.118,9.025 9.735,12.648 C10.915,13.830 11.922,14.696 12.727,15.219 C13.233,15.549 14.139,16.048 14.511,15.676 L14.735,15.450 C15.972,14.193 17.040,13.108 20.037,15.520 C21.052,16.337 21.562,17.135 21.596,17.960 C21.645,19.154 20.695,20.058 19.856,20.855 C19.718,20.988 19.583,21.116 19.458,21.241 C19.024,21.675 18.331,21.894 17.458,21.894 ZM4.348,1.476 C3.501,1.476 2.735,2.284 2.058,2.998 C1.921,3.141 1.789,3.281 1.660,3.411 C1.009,4.062 1.075,5.772 1.827,7.770 C2.756,10.237 4.603,12.933 7.027,15.362 C9.451,17.788 12.141,19.638 14.605,20.568 C16.600,21.323 18.307,21.387 18.957,20.737 C19.086,20.607 19.226,20.474 19.369,20.339 C20.098,19.645 20.924,18.859 20.888,17.987 C20.863,17.388 20.427,16.744 19.593,16.072 C17.096,14.061 16.398,14.771 15.240,15.947 L15.013,16.177 C14.460,16.732 13.561,16.609 12.341,15.814 C11.494,15.263 10.449,14.366 9.234,13.149 C6.232,10.143 5.272,8.303 6.212,7.360 L6.438,7.136 C7.615,5.976 8.325,5.276 6.317,2.774 C5.645,1.939 5.002,1.503 4.404,1.477 C4.385,1.476 4.367,1.476 4.348,1.476 Z"/>
</svg>