<svg 
 xmlns="http://www.w3.org/2000/svg"
 xmlns:xlink="http://www.w3.org/1999/xlink"
 width="26px" height="21px">
<path fill-rule="evenodd"  opacity="0.749" fill="rgb(255, 255, 255)"
 d="M25.463,2.654 C24.534,3.072 23.544,3.349 22.512,3.483 C23.574,2.833 24.384,1.812 24.765,0.581 C23.775,1.186 22.682,1.613 21.517,1.852 C20.577,0.826 19.237,0.190 17.775,0.190 C14.939,0.190 12.656,2.550 12.656,5.442 C12.656,5.859 12.691,6.259 12.775,6.640 C8.517,6.427 4.748,4.335 2.217,1.147 C1.775,1.933 1.516,2.833 1.516,3.801 C1.516,5.620 2.429,7.232 3.791,8.165 C2.968,8.149 2.161,7.904 1.477,7.518 C1.477,7.535 1.477,7.555 1.477,7.576 C1.477,10.128 3.252,12.247 5.581,12.735 C5.164,12.852 4.709,12.908 4.238,12.908 C3.910,12.908 3.579,12.889 3.268,12.819 C3.932,14.898 5.815,16.427 8.054,16.476 C6.312,17.874 4.099,18.716 1.703,18.716 C1.283,18.716 0.880,18.696 0.477,18.644 C2.746,20.143 5.435,21.000 8.335,21.000 C17.761,21.000 22.914,12.996 22.914,6.059 C22.914,5.826 22.907,5.602 22.896,5.380 C23.912,4.640 24.767,3.717 25.463,2.654 Z"/>
</svg>