<svg 
 xmlns="http://www.w3.org/2000/svg"
 xmlns:xlink="http://www.w3.org/1999/xlink"
 width="357px" height="357px">
<defs>
<linearGradient id="PSgrad_0" x1="0%" x2="0%" y1="100%" y2="0%">
  <stop offset="0%" stop-color="rgb(47,61,252)" stop-opacity="1" />
  <stop offset="73%" stop-color="rgb(100,17,135)" stop-opacity="1" />
</linearGradient>

</defs>
<path fill-rule="evenodd"  opacity="0.38" fill="rgb(97, 97, 97)"
 d="M0.000,342.009 L341.999,0.000 L357.000,0.000 L0.000,357.000 L0.000,342.009 ZM289.165,0.000 L304.164,0.000 L0.000,304.166 L0.000,289.173 L289.165,0.000 ZM235.615,0.000 L250.614,0.000 L0.000,250.616 L0.000,235.623 L235.615,0.000 ZM182.065,0.000 L197.064,0.000 L0.000,197.066 L0.000,182.073 L182.065,0.000 ZM128.515,0.000 L143.514,0.000 L0.000,143.516 L0.000,128.523 L128.515,0.000 ZM74.258,0.000 L89.250,0.000 L0.000,89.250 L0.000,74.259 L74.258,0.000 ZM21.415,0.000 L36.414,0.000 L0.000,36.416 L0.000,21.423 L21.415,0.000 ZM42.122,357.000 L357.000,42.124 L357.000,57.124 L57.115,357.000 L42.122,357.000 ZM99.246,357.000 L357.000,99.248 L357.000,114.238 L114.238,357.000 L99.246,357.000 ZM156.718,357.000 L357.000,156.719 L357.000,171.719 L171.719,357.000 L156.718,357.000 ZM213.841,357.000 L357.000,213.843 L357.000,228.833 L228.834,357.000 L213.841,357.000 ZM271.672,357.000 L357.000,271.680 L357.000,286.673 L286.671,357.000 L271.672,357.000 ZM328.795,357.000 L357.000,328.795 L357.000,343.787 L343.786,357.000 L328.795,357.000 Z"/>
<path fill="url(#PSgrad_0)"
 d="M0.000,342.009 L341.999,0.000 L357.000,0.000 L0.000,357.000 L0.000,342.009 ZM289.165,0.000 L304.164,0.000 L0.000,304.166 L0.000,289.173 L289.165,0.000 ZM235.615,0.000 L250.614,0.000 L0.000,250.616 L0.000,235.623 L235.615,0.000 ZM182.065,0.000 L197.064,0.000 L0.000,197.066 L0.000,182.073 L182.065,0.000 ZM128.515,0.000 L143.514,0.000 L0.000,143.516 L0.000,128.523 L128.515,0.000 ZM74.258,0.000 L89.250,0.000 L0.000,89.250 L0.000,74.259 L74.258,0.000 ZM21.415,0.000 L36.414,0.000 L0.000,36.416 L0.000,21.423 L21.415,0.000 ZM42.122,357.000 L357.000,42.124 L357.000,57.124 L57.115,357.000 L42.122,357.000 ZM99.246,357.000 L357.000,99.248 L357.000,114.238 L114.238,357.000 L99.246,357.000 ZM156.718,357.000 L357.000,156.719 L357.000,171.719 L171.719,357.000 L156.718,357.000 ZM213.841,357.000 L357.000,213.843 L357.000,228.833 L228.834,357.000 L213.841,357.000 ZM271.672,357.000 L357.000,271.680 L357.000,286.673 L286.671,357.000 L271.672,357.000 ZM328.795,357.000 L357.000,328.795 L357.000,343.787 L343.786,357.000 L328.795,357.000 Z"/>
</svg>