<svg 
 xmlns="http://www.w3.org/2000/svg"
 xmlns:xlink="http://www.w3.org/1999/xlink"
 width="28px" height="20px">
<path fill-rule="evenodd"  fill="rgb(255, 255, 255)"
 d="M25.039,19.438 L2.191,19.438 C0.980,19.438 -0.005,18.452 -0.005,17.240 L-0.005,2.258 C-0.005,1.046 0.980,0.061 2.191,0.061 L25.039,0.061 C26.249,0.061 27.235,1.046 27.235,2.258 L27.235,17.240 C27.235,18.452 26.249,19.438 25.039,19.438 ZM0.873,17.240 C0.873,17.967 1.464,18.559 2.191,18.559 L25.039,18.559 C25.765,18.559 26.356,17.967 26.356,17.240 L26.356,2.258 C26.356,2.080 26.319,1.910 26.254,1.754 L17.322,9.547 L22.351,14.267 C22.528,14.433 22.536,14.711 22.370,14.888 C22.283,14.980 22.167,15.027 22.050,15.027 C21.942,15.027 21.834,14.987 21.749,14.907 L16.695,10.163 C16.681,10.150 16.685,10.128 16.673,10.114 L15.227,11.375 C14.782,11.763 14.199,11.958 13.615,11.958 C13.031,11.958 12.447,11.763 12.002,11.376 L10.557,10.115 C10.545,10.129 10.549,10.150 10.535,10.163 L5.479,14.907 C5.395,14.987 5.287,15.027 5.179,15.027 C5.062,15.027 4.945,14.980 4.858,14.888 C4.692,14.711 4.701,14.433 4.878,14.267 L9.907,9.548 L0.976,1.751 C0.910,1.908 0.873,2.079 0.873,2.258 L0.873,17.240 ZM2.191,0.940 C1.966,0.940 1.764,1.011 1.579,1.111 L12.579,10.712 C13.140,11.202 14.089,11.202 14.650,10.712 L25.653,1.112 C25.467,1.012 25.265,0.940 25.039,0.940 L2.191,0.940 Z"/>
</svg>