<svg 
 xmlns="http://www.w3.org/2000/svg"
 xmlns:xlink="http://www.w3.org/1999/xlink"
 width="24px" height="23px">
<path fill-rule="evenodd"  opacity="0.749" fill="rgb(255, 255, 255)"
 d="M22.661,23.000 L18.089,23.000 C17.886,23.000 17.721,22.833 17.721,22.628 L17.721,15.400 C17.721,13.377 17.573,11.829 15.711,11.829 C14.001,11.829 13.335,12.794 13.335,15.273 L13.335,22.628 C13.335,22.833 13.170,23.000 12.967,23.000 L8.397,23.000 C8.194,23.000 8.029,22.833 8.029,22.628 L8.029,7.762 C8.029,7.557 8.194,7.390 8.397,7.390 L12.783,7.390 C12.986,7.390 13.151,7.557 13.151,7.762 L13.151,8.728 C13.976,7.820 15.336,7.021 17.175,7.021 C22.333,7.021 23.029,10.788 23.029,14.474 L23.029,22.628 C23.029,22.833 22.864,23.000 22.661,23.000 ZM3.238,6.101 C1.571,6.101 0.216,4.732 0.216,3.050 C0.216,1.368 1.571,-0.000 3.238,-0.000 C4.903,-0.000 6.258,1.368 6.257,3.050 C6.257,4.732 4.903,6.101 3.238,6.101 ZM0.946,7.390 L5.526,7.390 C5.729,7.390 5.894,7.557 5.894,7.762 L5.894,22.628 C5.894,22.833 5.729,23.000 5.526,23.000 L0.946,23.000 C0.743,23.000 0.578,22.833 0.578,22.628 L0.578,7.762 C0.578,7.557 0.743,7.390 0.946,7.390 Z"/>
</svg>