<svg 
 xmlns="http://www.w3.org/2000/svg"
 xmlns:xlink="http://www.w3.org/1999/xlink"
 width="145px" height="211px">
<defs>
<linearGradient id="PSgrad_0" x1="0%" x2="88.295%" y1="0%" y2="46.947%">
  <stop offset="0%" stop-color="rgb(47,61,252)" stop-opacity="0.6" />
  <stop offset="73%" stop-color="rgb(100,17,135)" stop-opacity="0.6" />
</linearGradient>

</defs>
<path fill-rule="evenodd"  fill="rgb(0, 0, 0)"
 d="M145.015,139.726 L142.277,208.032 C142.210,209.696 140.839,210.999 139.188,210.999 C139.145,210.999 139.104,210.998 139.061,210.997 C137.354,210.928 136.025,209.491 136.094,207.785 L138.832,139.479 C138.912,137.475 138.632,135.521 138.042,133.687 L126.792,144.928 C123.629,148.088 121.887,152.289 121.887,156.758 L121.887,207.909 C121.887,209.616 120.502,211.000 118.793,211.000 C117.085,211.000 115.700,209.616 115.700,207.909 L115.700,156.758 C115.700,150.638 118.085,144.884 122.416,140.556 L134.929,128.056 C133.149,125.936 130.833,124.243 128.126,123.200 L109.935,116.190 L96.083,136.950 C94.463,139.376 91.868,140.934 88.963,141.221 C88.640,141.252 88.317,141.269 87.996,141.269 C86.038,141.269 84.144,140.679 82.540,139.584 L85.512,207.774 C85.586,209.479 84.263,210.921 82.556,210.996 C82.510,210.998 82.464,210.999 82.419,210.999 C80.772,210.999 79.403,209.702 79.330,208.042 L76.585,145.031 L68.418,145.031 L65.672,208.042 C65.600,209.702 64.231,210.999 62.584,210.999 C62.539,210.999 62.493,210.998 62.447,210.996 C60.740,210.922 59.417,209.479 59.491,207.774 L62.462,139.583 C60.859,140.678 58.965,141.268 57.007,141.268 C56.686,141.268 56.363,141.252 56.040,141.220 C53.134,140.933 50.539,139.376 48.920,136.949 L35.068,116.189 L16.877,123.199 C14.170,124.243 11.854,125.935 10.074,128.055 L22.586,140.556 C26.918,144.883 29.303,150.637 29.303,156.757 L29.303,207.909 C29.303,209.616 27.918,211.000 26.210,211.000 C24.501,211.000 23.116,209.616 23.116,207.909 L23.116,156.758 C23.116,152.289 21.374,148.088 18.211,144.928 L6.961,133.687 C6.370,135.521 6.091,137.475 6.171,139.479 L8.909,207.785 C8.977,209.491 7.649,210.928 5.942,210.997 C5.900,210.998 5.858,210.999 5.816,210.999 C4.164,210.999 2.793,209.696 2.727,208.032 L-0.011,139.726 C-0.405,129.922 5.487,120.962 14.650,117.432 L33.983,109.981 L43.861,100.111 C44.516,99.457 45.397,99.155 46.261,99.215 L46.261,90.795 C41.592,85.868 38.276,79.598 36.975,72.523 C36.959,72.463 36.855,72.359 36.784,72.330 C35.921,72.390 35.047,72.331 34.185,72.154 C29.687,71.234 26.422,67.057 26.422,62.221 L26.422,59.686 C26.422,55.564 28.785,51.984 32.272,50.456 C31.244,46.364 29.728,38.779 29.728,29.618 C29.728,13.427 41.380,10.603 45.318,10.113 C48.120,7.777 57.558,0.901 72.333,0.103 C88.073,-0.747 100.443,3.477 108.107,12.317 C116.080,21.516 118.597,35.317 115.417,52.274 C117.370,54.117 118.578,56.759 118.578,59.646 L118.578,62.221 C118.578,67.057 115.313,71.234 110.815,72.154 C109.953,72.330 109.080,72.389 108.216,72.329 C108.145,72.358 108.041,72.463 108.024,72.526 C106.724,79.600 103.408,85.869 98.739,90.796 L98.739,99.215 C99.602,99.155 100.483,99.456 101.139,100.111 L111.018,109.981 L130.351,117.432 C139.513,120.963 145.405,129.922 145.015,139.726 ZM76.313,138.849 L76.074,133.365 L72.500,129.793 L68.925,133.365 L68.686,138.849 L76.313,138.849 ZM72.500,121.316 L92.552,103.786 L92.552,96.008 C86.778,99.861 79.864,102.085 72.500,102.085 C65.136,102.085 58.221,99.861 52.448,96.008 L52.448,103.786 L72.500,121.316 ZM46.188,106.527 L40.109,112.602 L54.066,133.520 C54.654,134.400 55.595,134.965 56.648,135.069 C57.703,135.174 58.735,134.804 59.483,134.056 L67.974,125.573 L46.188,106.527 ZM101.938,71.406 C102.521,68.232 105.466,65.928 108.629,66.161 C108.938,66.183 109.254,66.162 109.572,66.097 C111.178,65.769 112.389,64.102 112.389,62.221 L112.389,59.646 C112.389,57.835 111.159,56.224 109.528,55.900 C109.004,55.796 107.833,55.830 106.696,56.097 C104.121,56.703 101.511,55.366 100.491,52.917 L97.784,46.423 C89.004,48.223 60.935,52.320 46.925,34.893 C45.855,33.562 46.068,31.617 47.400,30.548 C48.732,29.479 50.679,29.691 51.749,31.022 C65.616,48.269 98.525,39.929 98.855,39.843 C100.346,39.454 101.902,40.221 102.495,41.644 L105.951,49.938 C107.206,49.700 108.478,49.617 109.591,49.693 C112.020,35.329 109.907,23.839 103.427,16.364 C97.063,9.021 86.425,5.534 72.665,6.276 C57.480,7.096 48.827,15.247 48.741,15.329 C48.165,15.883 47.397,16.192 46.597,16.192 C45.524,16.208 35.914,16.723 35.914,29.619 C35.914,38.982 37.643,46.632 38.538,49.964 C40.083,50.360 41.517,51.129 42.705,52.226 C44.239,50.949 45.571,49.426 46.677,47.683 C47.592,46.241 49.503,45.813 50.946,46.727 C52.390,47.641 52.818,49.550 51.903,50.992 C50.086,53.858 47.792,56.279 45.086,58.187 C43.969,58.975 42.515,59.208 41.197,58.811 C40.297,58.538 39.508,57.987 38.916,57.215 C38.099,56.152 36.809,55.658 35.466,55.893 C33.837,56.179 32.608,57.810 32.608,59.686 L32.608,62.221 C32.608,64.103 33.819,65.770 35.425,66.098 C35.743,66.163 36.060,66.184 36.368,66.162 C39.539,65.930 42.476,68.233 43.058,71.406 C45.668,85.600 58.049,95.902 72.498,95.902 C86.947,95.902 99.328,85.600 101.938,71.406 ZM98.811,106.527 L77.025,125.573 L85.516,134.056 C86.264,134.803 87.296,135.174 88.351,135.069 C89.405,134.965 90.345,134.400 90.933,133.520 L104.890,112.602 L98.811,106.527 ZM39.434,155.264 L52.660,155.264 C54.369,155.264 55.754,156.648 55.754,158.354 C55.754,160.062 54.369,161.445 52.660,161.445 L39.434,161.445 C37.726,161.445 36.341,160.062 36.341,158.354 C36.341,156.648 37.726,155.264 39.434,155.264 Z"/>
<path fill="url(#PSgrad_0)"
 d="M145.015,139.726 L142.277,208.032 C142.210,209.696 140.839,210.999 139.188,210.999 C139.145,210.999 139.104,210.998 139.061,210.997 C137.354,210.928 136.025,209.491 136.094,207.785 L138.832,139.479 C138.912,137.475 138.632,135.521 138.042,133.687 L126.792,144.928 C123.629,148.088 121.887,152.289 121.887,156.758 L121.887,207.909 C121.887,209.616 120.502,211.000 118.793,211.000 C117.085,211.000 115.700,209.616 115.700,207.909 L115.700,156.758 C115.700,150.638 118.085,144.884 122.416,140.556 L134.929,128.056 C133.149,125.936 130.833,124.243 128.126,123.200 L109.935,116.190 L96.083,136.950 C94.463,139.376 91.868,140.934 88.963,141.221 C88.640,141.252 88.317,141.269 87.996,141.269 C86.038,141.269 84.144,140.679 82.540,139.584 L85.512,207.774 C85.586,209.479 84.263,210.921 82.556,210.996 C82.510,210.998 82.464,210.999 82.419,210.999 C80.772,210.999 79.403,209.702 79.330,208.042 L76.585,145.031 L68.418,145.031 L65.672,208.042 C65.600,209.702 64.231,210.999 62.584,210.999 C62.539,210.999 62.493,210.998 62.447,210.996 C60.740,210.922 59.417,209.479 59.491,207.774 L62.462,139.583 C60.859,140.678 58.965,141.268 57.007,141.268 C56.686,141.268 56.363,141.252 56.040,141.220 C53.134,140.933 50.539,139.376 48.920,136.949 L35.068,116.189 L16.877,123.199 C14.170,124.243 11.854,125.935 10.074,128.055 L22.586,140.556 C26.918,144.883 29.303,150.637 29.303,156.757 L29.303,207.909 C29.303,209.616 27.918,211.000 26.210,211.000 C24.501,211.000 23.116,209.616 23.116,207.909 L23.116,156.758 C23.116,152.289 21.374,148.088 18.211,144.928 L6.961,133.687 C6.370,135.521 6.091,137.475 6.171,139.479 L8.909,207.785 C8.977,209.491 7.649,210.928 5.942,210.997 C5.900,210.998 5.858,210.999 5.816,210.999 C4.164,210.999 2.793,209.696 2.727,208.032 L-0.011,139.726 C-0.405,129.922 5.487,120.962 14.650,117.432 L33.983,109.981 L43.861,100.111 C44.516,99.457 45.397,99.155 46.261,99.215 L46.261,90.795 C41.592,85.868 38.276,79.598 36.975,72.523 C36.959,72.463 36.855,72.359 36.784,72.330 C35.921,72.390 35.047,72.331 34.185,72.154 C29.687,71.234 26.422,67.057 26.422,62.221 L26.422,59.686 C26.422,55.564 28.785,51.984 32.272,50.456 C31.244,46.364 29.728,38.779 29.728,29.618 C29.728,13.427 41.380,10.603 45.318,10.113 C48.120,7.777 57.558,0.901 72.333,0.103 C88.073,-0.747 100.443,3.477 108.107,12.317 C116.080,21.516 118.597,35.317 115.417,52.274 C117.370,54.117 118.578,56.759 118.578,59.646 L118.578,62.221 C118.578,67.057 115.313,71.234 110.815,72.154 C109.953,72.330 109.080,72.389 108.216,72.329 C108.145,72.358 108.041,72.463 108.024,72.526 C106.724,79.600 103.408,85.869 98.739,90.796 L98.739,99.215 C99.602,99.155 100.483,99.456 101.139,100.111 L111.018,109.981 L130.351,117.432 C139.513,120.963 145.405,129.922 145.015,139.726 ZM76.313,138.849 L76.074,133.365 L72.500,129.793 L68.925,133.365 L68.686,138.849 L76.313,138.849 ZM72.500,121.316 L92.552,103.786 L92.552,96.008 C86.778,99.861 79.864,102.085 72.500,102.085 C65.136,102.085 58.221,99.861 52.448,96.008 L52.448,103.786 L72.500,121.316 ZM46.188,106.527 L40.109,112.602 L54.066,133.520 C54.654,134.400 55.595,134.965 56.648,135.069 C57.703,135.174 58.735,134.804 59.483,134.056 L67.974,125.573 L46.188,106.527 ZM101.938,71.406 C102.521,68.232 105.466,65.928 108.629,66.161 C108.938,66.183 109.254,66.162 109.572,66.097 C111.178,65.769 112.389,64.102 112.389,62.221 L112.389,59.646 C112.389,57.835 111.159,56.224 109.528,55.900 C109.004,55.796 107.833,55.830 106.696,56.097 C104.121,56.703 101.511,55.366 100.491,52.917 L97.784,46.423 C89.004,48.223 60.935,52.320 46.925,34.893 C45.855,33.562 46.068,31.617 47.400,30.548 C48.732,29.479 50.679,29.691 51.749,31.022 C65.616,48.269 98.525,39.929 98.855,39.843 C100.346,39.454 101.902,40.221 102.495,41.644 L105.951,49.938 C107.206,49.700 108.478,49.617 109.591,49.693 C112.020,35.329 109.907,23.839 103.427,16.364 C97.063,9.021 86.425,5.534 72.665,6.276 C57.480,7.096 48.827,15.247 48.741,15.329 C48.165,15.883 47.397,16.192 46.597,16.192 C45.524,16.208 35.914,16.723 35.914,29.619 C35.914,38.982 37.643,46.632 38.538,49.964 C40.083,50.360 41.517,51.129 42.705,52.226 C44.239,50.949 45.571,49.426 46.677,47.683 C47.592,46.241 49.503,45.813 50.946,46.727 C52.390,47.641 52.818,49.550 51.903,50.992 C50.086,53.858 47.792,56.279 45.086,58.187 C43.969,58.975 42.515,59.208 41.197,58.811 C40.297,58.538 39.508,57.987 38.916,57.215 C38.099,56.152 36.809,55.658 35.466,55.893 C33.837,56.179 32.608,57.810 32.608,59.686 L32.608,62.221 C32.608,64.103 33.819,65.770 35.425,66.098 C35.743,66.163 36.060,66.184 36.368,66.162 C39.539,65.930 42.476,68.233 43.058,71.406 C45.668,85.600 58.049,95.902 72.498,95.902 C86.947,95.902 99.328,85.600 101.938,71.406 ZM98.811,106.527 L77.025,125.573 L85.516,134.056 C86.264,134.803 87.296,135.174 88.351,135.069 C89.405,134.965 90.345,134.400 90.933,133.520 L104.890,112.602 L98.811,106.527 ZM39.434,155.264 L52.660,155.264 C54.369,155.264 55.754,156.648 55.754,158.354 C55.754,160.062 54.369,161.445 52.660,161.445 L39.434,161.445 C37.726,161.445 36.341,160.062 36.341,158.354 C36.341,156.648 37.726,155.264 39.434,155.264 Z"/>
</svg>