<svg 
 xmlns="http://www.w3.org/2000/svg"
 xmlns:xlink="http://www.w3.org/1999/xlink"
 width="21px" height="21px">
<path fill-rule="evenodd"  opacity="0.749" fill="rgb(0, 0, 0)"
 d="M20.661,21.000 L16.453,21.000 C16.266,21.000 16.114,20.848 16.114,20.660 L16.114,14.061 C16.114,12.213 15.978,10.800 14.264,10.800 C12.690,10.800 12.077,11.682 12.077,13.945 L12.077,20.660 C12.077,20.848 11.925,21.000 11.738,21.000 L7.531,21.000 C7.344,21.000 7.193,20.848 7.193,20.660 L7.193,7.087 C7.193,6.900 7.344,6.748 7.531,6.748 L11.569,6.748 C11.756,6.748 11.907,6.900 11.907,7.087 L11.907,7.969 C12.667,7.140 13.918,6.410 15.611,6.410 C20.360,6.410 21.000,9.850 21.000,13.215 L21.000,20.660 C21.000,20.848 20.848,21.000 20.661,21.000 ZM2.782,5.571 C1.248,5.571 0.000,4.321 0.000,2.785 C0.000,1.250 1.248,0.000 2.782,0.000 C4.315,0.000 5.562,1.250 5.562,2.785 C5.562,4.321 4.315,5.571 2.782,5.571 ZM0.673,6.748 L4.888,6.748 C5.075,6.748 5.227,6.900 5.227,7.087 L5.227,20.660 C5.227,20.848 5.075,21.000 4.888,21.000 L0.673,21.000 C0.485,21.000 0.334,20.848 0.334,20.660 L0.334,7.087 C0.334,6.900 0.485,6.748 0.673,6.748 Z"/>
</svg>