<svg 
 xmlns="http://www.w3.org/2000/svg"
 xmlns:xlink="http://www.w3.org/1999/xlink"
 width="28px" height="18px">
<path fill-rule="evenodd"  opacity="0.749" fill="rgb(0, 0, 0)"
 d="M24.500,9.000 L24.500,12.600 L22.750,12.600 L22.750,9.000 L19.250,9.000 L19.250,7.200 L22.750,7.200 L22.750,3.600 L24.500,3.600 L24.500,7.200 L28.000,7.200 L28.000,9.000 L24.500,9.000 ZM8.750,18.000 C3.925,18.000 0.000,13.962 0.000,9.000 C0.000,4.038 3.925,-0.000 8.750,-0.000 C10.852,-0.000 12.875,0.777 14.450,2.189 L12.150,4.903 C11.212,4.063 10.005,3.600 8.750,3.600 C5.856,3.600 3.500,6.023 3.500,9.000 C3.500,11.977 5.856,14.400 8.750,14.400 C11.032,14.400 12.978,12.895 13.701,10.800 L8.750,10.800 L8.750,7.200 L17.500,7.200 L17.500,9.000 C17.500,13.962 13.575,18.000 8.750,18.000 Z"/>
</svg>