<svg 
 xmlns="http://www.w3.org/2000/svg"
 xmlns:xlink="http://www.w3.org/1999/xlink"
 width="23px" height="19px">
<path fill-rule="evenodd"  opacity="0.749" fill="rgb(0, 0, 0)"
 d="M23.000,2.249 C22.145,2.631 21.233,2.884 20.283,3.006 C21.261,2.413 22.007,1.480 22.357,0.357 C21.446,0.909 20.440,1.299 19.367,1.517 C18.502,0.580 17.269,-0.000 15.923,-0.000 C13.313,-0.000 11.211,2.154 11.211,4.795 C11.211,5.175 11.243,5.541 11.320,5.889 C7.400,5.694 3.932,3.784 1.601,0.874 C1.195,1.591 0.956,2.413 0.956,3.297 C0.956,4.957 1.797,6.429 3.050,7.281 C2.293,7.267 1.550,7.043 0.920,6.691 C0.920,6.705 0.920,6.725 0.920,6.744 C0.920,9.073 2.554,11.008 4.698,11.454 C4.314,11.561 3.896,11.612 3.462,11.612 C3.160,11.612 2.855,11.594 2.569,11.530 C3.180,13.428 4.913,14.824 6.975,14.869 C5.370,16.146 3.334,16.914 1.129,16.914 C0.742,16.914 0.371,16.897 0.000,16.848 C2.089,18.218 4.564,19.000 7.233,19.000 C15.910,19.000 20.654,11.692 20.654,5.358 C20.654,5.146 20.647,4.941 20.637,4.738 C21.573,4.063 22.359,3.220 23.000,2.249 Z"/>
</svg>