<svg width="37" height="55" xmlns="http://www.w3.org/2000/svg" xmlns:xlink="http://www.w3.org/1999/xlink" xmlns:svgjs="http://svgjs.com/svgjs" viewBox="0.167 0 36.667 55" fill="#fff"><svg xmlns="http://www.w3.org/2000/svg" width="37" height="55" viewBox="2 1.999 36.001 54.001"><path paint-order="stroke fill markers" fill-rule="evenodd" d="M20 2C10.074 2 2 10.07 2 19.99v18.02C2 47.93 10.074 56 20 56s18-8.07 18-17.99V19.99C38 10.07 29.927 2 20 2zm16 36.01C36 46.827 28.824 54 20 54c-8.822 0-16-7.173-16-15.99V19.99C4 11.175 11.178 4 20 4c8.823 0 16 7.173 16 15.99v18.02zM20 8a1 1 0 0 0-1 1v9.055a1 1 0 1 0 2 0V9a1 1 0 0 0-1-1z"/></svg></svg>